# xmcd
#
# Track frame offsets: 
#        150
#        12991
#        27142
#        40350
#        52624
#        64879
#        77146
#        89295
#        101409
#        119632
#        136573
#        148373
#        173743
#        198974
#        224575
#        251561
#        257221
#        266126
#        274914
#        281929
#        297862
#        312036
#
# Disc length: 4438 seconds
#
# Revision: 0
# Processed by: cddbd v1.5.2PL0 Copyright (c) Steve Scherf et al.
# Submitted via: ExactAudioCopy v0.95b3
#
DISCID=4f115416
DTITLE=Jimi Hendrix  - Moonbeams and Fairytales - Disc 09
DYEAR=1900
DGENRE=
TTITLE0=Purple Haze
TTITLE1=Mr. Bad Luck
TTITLE2=Mr. Bad Luck
TTITLE3=She's So Fine
TTITLE4=She's So Fine
TTITLE5=She's So Fine
TTITLE6=She's So Fine
TTITLE7=She's So Fine
TTITLE8=Taking Care of No Business
TTITLE9=Taking Care of No Business
TTITLE10=Cat Talking to Me
TTITLE11=If 6 Was 9
TTITLE12=If 6 Was 9
TTITLE13=If 6 Was 9
TTITLE14=If 6 Was 9
TTITLE15=Exp
TTITLE16=Exp
TTITLE17=Exp
TTITLE18=The Burning of the Midnight Lamp
TTITLE19=The Wind Cries Mary
TTITLE20=Hey Joe
TTITLE21=Wild Thing
EXTD=
EXTT0=
EXTT1=
EXTT2=
EXTT3=
EXTT4=
EXTT5=
EXTT6=
EXTT7=
EXTT8=
EXTT9=
EXTT10=
EXTT11=
EXTT12=
EXTT13=
EXTT14=
EXTT15=
EXTT16=
EXTT17=
EXTT18=
EXTT19=
EXTT20=
EXTT21=
PLAYORDER=
